HIERARCHY
ROOT RootJoint
{
    OFFSET   0.000000   0.000000   0.000000
    CHANNELS 6 Xposition Yposition Zposition Xrotation Yrotation Zrotation
    JOINT pelvis_lowerback
    {
        OFFSET   0.000000   0.093605   0.000000
        CHANNELS 3 Xrotation Yrotation Zrotation
        JOINT lowerback_torso
        {
            OFFSET   0.000000   0.100000   0.000000
            CHANNELS 3 Xrotation Yrotation Zrotation
            JOINT torso_head
            {
                OFFSET   0.000000   0.282350   0.000000
                CHANNELS 3 Xrotation Yrotation Zrotation
                End Site
                {
                    OFFSET   0.000000   0.192650   0.000000
                }
            }
            JOINT rTorso_Clavicle
            {
                OFFSET  -0.001000   0.157500   0.000000
                CHANNELS 3 Xrotation Yrotation Zrotation
                JOINT rShoulder
                {
                    OFFSET  -0.117647   0.000000   0.000000
                    CHANNELS 3 Xrotation Yrotation Zrotation
                    JOINT rElbow
                    {
                        OFFSET  -0.245000   0.000000   0.000000
                        CHANNELS 3 Xrotation Yrotation Zrotation
                        JOINT rWrist
                        {
                            OFFSET  -0.240000   0.000000   0.000000
                            CHANNELS 3 Xrotation Yrotation Zrotation
                            End Site
                            {
                                OFFSET  -0.116353  -0.002500   0.000000
                            }
                        }
                    }
                }
            }
            JOINT lTorso_Clavicle
            {
                OFFSET   0.001000   0.157500   0.000000
                CHANNELS 3 Xrotation Yrotation Zrotation
                JOINT lShoulder
                {
                    OFFSET   0.117647   0.000000   0.000000
                    CHANNELS 3 Xrotation Yrotation Zrotation
                    JOINT lElbow
                    {
                        OFFSET   0.245000   0.000000   0.000000
                        CHANNELS 3 Xrotation Yrotation Zrotation
                        JOINT lWrist
                        {
                            OFFSET   0.240000   0.000000   0.000000
                            CHANNELS 3 Xrotation Yrotation Zrotation
                            End Site
                            {
                                OFFSET   0.116353  -0.002500   0.000000
                            }
                        }
                    }
                }
            }
        }
    }
    JOINT rHip
    {
        OFFSET  -0.100000  -0.051395   0.000000
        CHANNELS 3 Xrotation Yrotation Zrotation
        JOINT rKnee
        {
            OFFSET   0.000000  -0.410000   0.000000
            CHANNELS 3 Xrotation Yrotation Zrotation
            JOINT rAnkle
            {
                OFFSET   0.000000  -0.390000   0.000000
                CHANNELS 3 Xrotation Yrotation Zrotation
                JOINT rToeJoint
                {
                    OFFSET   0.000000  -0.050000   0.130000
                    CHANNELS 3 Xrotation Yrotation Zrotation
                    End Site
                    {
                        OFFSET  -0.010000   0.002000   0.060000
                    }
                }
            }
        }
    }
    JOINT lHip
    {
        OFFSET   0.100000  -0.051395   0.000000
        CHANNELS 3 Xrotation Yrotation Zrotation
        JOINT lKnee
        {
            OFFSET   0.000000  -0.410000   0.000000
            CHANNELS 3 Xrotation Yrotation Zrotation
            JOINT lAnkle
            {
                OFFSET   0.000000  -0.390000   0.000000
                CHANNELS 3 Xrotation Yrotation Zrotation
                JOINT lToeJoint
                {
                    OFFSET   0.000000  -0.050000   0.130000
                    CHANNELS 3 Xrotation Yrotation Zrotation
                    End Site
                    {
                        OFFSET   0.010000   0.002000   0.060000
                    }
                }
            }
        }
    }
}
MOTION
Frames: 11
Frame Time:   0.008333
 -2.302445   0.915843   4.321118  -4.588282 -11.416703  -6.807138  10.840746  -0.876084  -0.908920   4.259327  -3.297466   3.414807   4.201958  -4.372819   3.428705  -3.874526   9.428859  -6.232432 -22.439644   5.730299  60.155856 179.999914  52.646031 179.996207  -0.634961   7.704585  -0.505749  -3.094563 -10.202648   7.997591 -26.107988 -13.813756 -62.467293 -179.996380 -51.677673 -179.994964   1.090344  -9.701193   6.128331  -9.866469  -6.382174 -13.930638  18.351212  -0.004648  -0.002154  14.266503  -4.069946   8.437463  -9.000035  -0.005434  -0.001356  -4.577438   6.532756  11.850644  21.256138  -0.002697   0.006572 -13.176544   8.668232   3.615852   0.999480   0.000002   0.000019
 -2.301266   0.916855   4.320045  -4.496791 -11.565684  -6.794945  10.789063  -0.949635  -0.851158   4.281828  -3.228992   3.384979   4.197415  -4.292366   3.349409  -3.730045   9.338375  -6.163493 -21.950075   5.846467  60.270237 -179.999749  53.132193 179.995255  -0.659592   7.875203  -0.650292  -3.051321 -10.186021   7.903017 -25.840718 -13.889760 -62.291983 -179.996048 -51.999657 -179.994527   1.051625  -9.724532   6.419300  -9.828475  -6.364472 -13.789362  19.382945  -0.004801  -0.002047  13.088754  -4.058798   8.272176  -8.441155  -0.004145  -0.001045  -4.386485   6.565218  11.730573  20.546480  -0.002469   0.006394 -12.729984   8.843835   3.562664   0.993754  -0.000005   0.000015
 -2.300269   0.917771   4.318994  -4.414438 -11.688752  -6.778293  10.728068  -1.030207  -0.808428   4.311655  -3.177556   3.346423   4.185450  -4.215728   3.268012  -3.562791   9.228382  -6.085320 -21.458435   5.938858  60.373595 -179.999484  53.612807 179.994647  -0.684573   7.885630  -0.781952  -2.991120 -10.162812   7.805820 -25.570467 -13.958038 -62.128582 -179.995967 -52.311015 -179.994317   1.006494  -9.686104   6.654870  -9.755463  -6.355097 -13.654534  20.409963  -0.004874  -0.001768  11.993445  -4.045250   8.117705  -7.922804  -0.003105  -0.000783  -4.202457   6.586030  11.620281  19.871469  -0.002228   0.006070 -12.301602   9.000210   3.512264   0.986676  -0.000011   0.000012
 -2.299426   0.918589   4.317914  -4.333875 -11.810475  -6.756713  10.664310  -1.107899  -0.779625   4.340399  -3.134465   3.301986   4.171153  -4.144127   3.189352  -3.395097   9.114441  -6.006649 -20.987195   6.019415  60.469032 -179.999293  54.067198 179.994380  -0.709249   7.834071  -0.905937  -2.927725 -10.135579   7.710292 -25.310421 -14.018397 -61.976408 -179.996055 -52.603752 -179.994305   0.960255  -9.626002   6.873259  -9.663834  -6.351398 -13.524278  21.387161  -0.004879  -0.001538  10.972656  -4.029676   7.973812  -7.443309  -0.002315  -0.000615  -4.037751   6.606386  11.519194  19.237320  -0.001972   0.005705 -11.893134   9.149552   3.464313   0.978732  -0.000016   0.000010
 -2.298717   0.919318   4.316786  -4.253921 -11.938539  -6.729924  10.601594  -1.180737  -0.762679   4.366481  -3.095835   3.252878   4.156519  -4.077312   3.114451  -3.234670   9.003717  -5.931152 -20.543185   6.093004  60.557355 -179.999164  54.492934 179.994368  -0.733223   7.764686  -1.024338  -2.865696 -10.107311   7.618544 -25.064413 -14.072555 -61.834354 -179.996235 -52.877616 -179.994417   0.914909  -9.561352   7.084271  -9.562257  -6.352004 -13.399838  22.306457  -0.004831  -0.001409  10.020502  -4.012632   7.839871  -7.002118  -0.001732  -0.000533  -3.893681   6.629753  11.425858  18.642722  -0.001711   0.005339 -11.503234   9.296387   3.418615   0.970386  -0.000019   0.000008
 -2.298132   0.919965   4.315602  -4.174656 -12.074427  -6.698304  10.541813  -1.248678  -0.755194   4.390121  -3.060380   3.200396   4.142323  -4.014980   3.043507  -3.083910   8.898893  -5.860083 -20.127684   6.161630  60.639122 -179.999090  54.890705 179.994536  -0.756351   7.692749  -1.137506  -2.806529 -10.079728   7.531245 -24.833304 -14.121784 -61.701798 -179.996458 -53.133501 -179.994603   0.871031  -9.497588   7.289040  -9.455229  -6.355950 -13.282055  23.168042  -0.004742  -0.001367   9.132132  -3.994581   7.715223  -6.596930  -0.001308  -0.000514  -3.769292   6.656889  11.339701  18.085029  -0.001454   0.004985 -11.130204   9.441914   3.375094   0.962083  -0.000021   0.000007
 -2.297664   0.920540   4.314359  -4.096495 -12.217650  -6.662404  10.485920  -1.312135  -0.755039   4.411900  -3.027692   3.145804   4.128889  -3.956836   2.976496  -2.943241   8.800712  -5.793696 -19.739932   6.226146  60.714842 -179.999069  55.261984 179.994829  -0.778597   7.623240  -1.245622  -2.750648 -10.053664   7.448504 -24.616860 -14.166928 -61.578217 -179.996696 -53.372516 -179.994829   0.828732  -9.436228   7.487121  -9.345462  -6.362457 -13.171416  23.974297  -0.004620  -0.001385   8.303187  -3.975894   7.599227  -6.225087  -0.001004  -0.000533  -3.663043   6.687654  11.260524  17.561550  -0.001207   0.004648 -10.772525   9.586256   3.333714   0.954209  -0.000022   0.000005
 -2.297350   0.921056   4.313298  -4.040552 -12.298883  -6.605276  10.413213  -1.400120  -0.769164   4.412546  -3.002942   3.080057   4.099508  -3.869807   2.898563  -2.795508   8.611598  -5.671076 -19.145855   6.327484  60.773155 -179.998639  55.901864 179.994042  -0.770819   7.795661  -1.405077  -2.705825 -10.002914   7.329059 -24.209763 -14.347689 -61.385382 -179.995853 -53.782170 -179.993714   0.806153  -9.505882   7.720633  -9.188440  -6.363824 -13.102850  24.878394  -0.004360  -0.001004   7.477954  -3.992410   7.457500  -5.862422  -0.000530  -0.000525  -3.510783   6.649183  11.155455  17.032811  -0.000970   0.004441 -10.420565   9.743841   3.291871   0.946220  -0.000022   0.000004
 -2.297162   0.921503   4.312275  -3.992323 -12.365378  -6.544356  10.329059  -1.486742  -0.785903   4.416619  -2.987310   3.018579   4.058243  -3.786866   2.820707  -2.616130   8.407310  -5.535077 -18.547579   6.404155  60.826678 -179.998577  56.530764 179.993665  -0.767108   7.789412  -1.536114  -2.638316  -9.941750   7.211320 -23.800516 -14.510026 -61.199130 -179.995265 -54.182451 -179.992956   0.770529  -9.475728   7.885989  -9.007246  -6.368165 -13.046129  25.761384  -0.004048  -0.000625   6.710002  -4.006418   7.324535  -5.525882  -0.000154  -0.000500  -3.365002   6.607243  11.056663  16.537604  -0.000756   0.004164 -10.088523   9.886925   3.251842   0.939311  -0.000020   0.000004
 -2.297079   0.921886   4.311228  -3.948031 -12.435593  -6.480488  10.243181  -1.567585  -0.804112   4.421456  -2.974364   2.961560   4.015383  -3.709250   2.746662  -2.433248   8.204840  -5.398111 -17.973301   6.468931  60.877490 -179.998753  57.125293 179.993667  -0.765514   7.710886  -1.655881  -2.566506  -9.875802   7.098203 -23.407867 -14.656062 -61.022633 -179.994910 -54.559620 -179.992539   0.731056  -9.408698   8.034438  -8.818568  -6.374984 -12.997757  26.599014  -0.003746  -0.000386   5.994161  -4.017775   7.200217  -5.214635   0.000112  -0.000494  -3.232997   6.570703  10.964900  16.076575  -0.000562   0.003874  -9.774085  10.024321   3.213385   0.933462  -0.000019   0.000003
 -2.297093   0.922213   4.310133  -3.906267 -12.514507  -6.413896  10.159692  -1.642441  -0.822677   4.425920  -2.962147   2.908441   3.974020  -3.636725   2.677172  -2.256700   8.011366  -5.265537 -17.431444   6.527098  60.925388 -179.999056  57.682599 179.993935  -0.764871   7.610680  -1.769704  -2.496252  -9.809802   6.991268 -23.036932 -14.789091 -60.856089 -179.994716 -54.912636 -179.992364   0.691442  -9.332314   8.177924  -8.630442  -6.383596 -12.956494  27.386184  -0.003475  -0.000284   5.326377  -4.026889   7.084064  -4.928306   0.000282  -0.000509  -3.115851   6.541469  10.879920  15.646246  -0.000385   0.003594  -9.474122  10.159195   3.176635   0.928802  -0.000016   0.000002
